<svg xmlns="http://www.w3.org/2000/svg" xmlns:xlink="http://www.w3.org/1999/xlink" viewBox="0 0 1920 1080"><defs><style>.cls-1{fill:none;}.cls-2{fill:#f2f2f2;}.cls-3{fill:url(#ў);}</style><pattern id="ў" data-name="ў" width="254.33" height="169.34" patternUnits="userSpaceOnUse" viewBox="0 0 254.34 169.34"><rect class="cls-1" width="254.33" height="169.34"/><path class="cls-2" d="M232.77,205.73q7.24,4.19,14.2,1.86t12-11l21.69-37.56-9.15-4.14-1.36.56.15,1.54a12.71,12.71,0,0,1-.63,6.5,67.23,67.23,0,0,1-4.53,8.92q-3.69,6.39-8.37,8.37a10.1,10.1,0,0,1-9.43-.77,6.8,6.8,0,0,1-3.65-5q-.45-3.16,2-7.38l11.25-19.48a2.23,2.23,0,0,0,.21-1.91,2.81,2.81,0,0,0-1.33-1.55,13.78,13.78,0,0,0-5.47-1.6,16.05,16.05,0,0,0-6.16.5l-.45,2,3.2,1.84a1.56,1.56,0,0,1,.87,1,2.57,2.57,0,0,1-.46,1.51l-9,15.59q-3.19,5.53-2.2,10.21t6,7.55a16.86,16.86,0,0,0,8.24,2.37,14.2,14.2,0,0,0,7.78-2.05l-6,10.45q-3.51,6.07-7.7,8.48a8,8,0,0,1-8.56-.11,6.54,6.54,0,0,1-3.38-4.49,7.93,7.93,0,0,1,1-5.69,9.7,9.7,0,0,1,2.9-3.31,12.53,12.53,0,0,1,3.18-1.54,4.1,4.1,0,0,0,1.76-.8.66.66,0,0,0,0-.69,2,2,0,0,0-.82-.74,10.16,10.16,0,0,0-8.06-1.33,9.73,9.73,0,0,0-5.93,4.69,11.06,11.06,0,0,0-1.47,5.7,11.48,11.48,0,0,0,1.95,6.16A16.41,16.41,0,0,0,232.77,205.73ZM268,146q5.15,3,9.08,3a6.11,6.11,0,0,0,5.77-3.16,5.55,5.55,0,0,0-1.95-7.78,1.93,1.93,0,0,0-1.21-.33,1,1,0,0,0-.78.54,4.93,4.93,0,0,0-.19,1.5,6.6,6.6,0,0,1-1,2.9,3.71,3.71,0,0,1-3,1.92,8.86,8.86,0,0,1-5-1.55q-5.61-3.24-3.4-7.06a5.85,5.85,0,0,1,2-2.26,4.49,4.49,0,0,0,1.22-.85,1,1,0,0,0,0-.93,1.67,1.67,0,0,0-.75-.85,5.88,5.88,0,0,0-4.37-.71,5.43,5.43,0,0,0-3.58,2.77,6.15,6.15,0,0,0,.11,6.56Q262.9,143.1,268,146Z"/><path class="cls-2" d="M-21.57,205.73q7.26,4.19,14.21,1.86t12-11l21.69-37.56-9.15-4.14-1.37.56.15,1.54a12.71,12.71,0,0,1-.63,6.5,67.23,67.23,0,0,1-4.53,8.92q-3.69,6.39-8.36,8.37A10.1,10.1,0,0,1-7,180a6.77,6.77,0,0,1-3.65-5q-.45-3.16,2-7.38L2.53,148.15a2.2,2.2,0,0,0,.22-1.91,2.83,2.83,0,0,0-1.34-1.55,13.73,13.73,0,0,0-5.47-1.6,16.07,16.07,0,0,0-6.16.5l-.44,2,3.2,1.84a1.57,1.57,0,0,1,.86,1A2.48,2.48,0,0,1-7,150l-9,15.59q-3.19,5.53-2.21,10.21t6,7.55A16.89,16.89,0,0,0-4,185.71a14.22,14.22,0,0,0,7.78-2.05l-6,10.45q-3.51,6.07-7.71,8.48a8,8,0,0,1-8.56-.11A6.54,6.54,0,0,1-21.93,198a8,8,0,0,1,1.05-5.69A9.7,9.7,0,0,1-18,189a12.22,12.22,0,0,1,3.18-1.54,4.17,4.17,0,0,0,1.76-.8.68.68,0,0,0,0-.69,2.08,2.08,0,0,0-.82-.74,10.18,10.18,0,0,0-8.07-1.33,9.74,9.74,0,0,0-5.92,4.69,11.07,11.07,0,0,0-1.48,5.7,11.48,11.48,0,0,0,2,6.16A16.5,16.5,0,0,0-21.57,205.73ZM13.63,146q5.14,3,9.07,3a6.12,6.12,0,0,0,5.78-3.16,5.54,5.54,0,0,0-2-7.78,1.91,1.91,0,0,0-1.2-.33,1,1,0,0,0-.78.54,4.6,4.6,0,0,0-.19,1.5,6.6,6.6,0,0,1-1,2.9,3.72,3.72,0,0,1-3,1.92c-1.33.14-3-.38-5-1.55q-5.61-3.24-3.41-7.06a5.93,5.93,0,0,1,2-2.26,4.31,4.31,0,0,0,1.22-.85,1,1,0,0,0,0-.93,1.65,1.65,0,0,0-.76-.85,5.88,5.88,0,0,0-4.37-.71,5.44,5.44,0,0,0-3.57,2.77,6.13,6.13,0,0,0,.11,6.56Q8.56,143.1,13.63,146Z"/><path class="cls-2" d="M232.77,36.39Q240,40.58,247,38.25t12-11l21.69-37.56-9.15-4.14-1.36.56.15,1.54a12.71,12.71,0,0,1-.63,6.5,67.23,67.23,0,0,1-4.53,8.92q-3.69,6.39-8.37,8.37a10.13,10.13,0,0,1-9.43-.77,6.8,6.8,0,0,1-3.65-5q-.45-3.16,2-7.38L256.87-21.2a2.21,2.21,0,0,0,.21-1.9,2.81,2.81,0,0,0-1.33-1.55,13.78,13.78,0,0,0-5.47-1.6,16.05,16.05,0,0,0-6.16.5l-.45,2,3.2,1.84a1.54,1.54,0,0,1,.87,1,2.57,2.57,0,0,1-.46,1.51l-9,15.59q-3.19,5.54-2.2,10.21t6,7.55a16.86,16.86,0,0,0,8.24,2.37,14.2,14.2,0,0,0,7.78-2.05l-6,10.44q-3.51,6.09-7.7,8.49a8,8,0,0,1-8.56-.11,6.54,6.54,0,0,1-3.38-4.49,7.93,7.93,0,0,1,1-5.69,9.7,9.7,0,0,1,2.9-3.31,12.53,12.53,0,0,1,3.18-1.54c1.06-.33,1.64-.6,1.76-.81a.64.64,0,0,0,0-.68,2,2,0,0,0-.82-.74,10.16,10.16,0,0,0-8.06-1.33,9.69,9.69,0,0,0-5.93,4.69A11,11,0,0,0,225,24.93a11.49,11.49,0,0,0,1.95,6.17A16.51,16.51,0,0,0,232.77,36.39ZM268-23.31q5.15,3,9.08,3a6.11,6.11,0,0,0,5.77-3.16,5.48,5.48,0,0,0,.65-4.46,5.49,5.49,0,0,0-2.6-3.32,1.93,1.93,0,0,0-1.21-.33,1,1,0,0,0-.78.54,4.93,4.93,0,0,0-.19,1.5,6.6,6.6,0,0,1-1,2.9,3.71,3.71,0,0,1-3,1.92,8.94,8.94,0,0,1-5-1.55q-5.61-3.24-3.4-7.06a5.85,5.85,0,0,1,2-2.26,4.49,4.49,0,0,0,1.22-.85,1,1,0,0,0,0-.93,1.67,1.67,0,0,0-.75-.85,5.88,5.88,0,0,0-4.37-.71,5.43,5.43,0,0,0-3.58,2.77,6.15,6.15,0,0,0,.11,6.56Q262.9-26.24,268-23.31Z"/><path class="cls-2" d="M105.6,121.06q7.25,4.18,14.2,1.86t12-11l21.69-37.56-9.14-4.14-1.37.56.15,1.54a12.71,12.71,0,0,1-.63,6.5,67.23,67.23,0,0,1-4.53,8.92q-3.69,6.39-8.36,8.37a10.1,10.1,0,0,1-9.43-.77,6.77,6.77,0,0,1-3.65-5q-.47-3.16,2-7.38L129.7,63.48a2.27,2.27,0,0,0,.22-1.91A2.87,2.87,0,0,0,128.58,60a13.78,13.78,0,0,0-5.47-1.6,16.07,16.07,0,0,0-6.16.5l-.44,2,3.19,1.84a1.54,1.54,0,0,1,.87,1,2.48,2.48,0,0,1-.45,1.51l-9,15.59q-3.2,5.53-2.21,10.21t6,7.55a16.89,16.89,0,0,0,8.24,2.37A14.25,14.25,0,0,0,130.92,99l-6,10.45q-3.51,6.07-7.71,8.48a8,8,0,0,1-8.56-.11,6.54,6.54,0,0,1-3.38-4.49,8,8,0,0,1,1.05-5.69,9.59,9.59,0,0,1,2.9-3.31,12.32,12.32,0,0,1,3.17-1.54,4.17,4.17,0,0,0,1.77-.8.68.68,0,0,0,0-.69,2.12,2.12,0,0,0-.83-.74,10.15,10.15,0,0,0-8.06-1.33,9.72,9.72,0,0,0-5.93,4.69,11.06,11.06,0,0,0-1.47,5.7,11.48,11.48,0,0,0,2,6.16A16.41,16.41,0,0,0,105.6,121.06Zm35.2-59.7q5.14,3,9.07,3a6.11,6.11,0,0,0,5.77-3.16,5.53,5.53,0,0,0-1.95-7.78,1.93,1.93,0,0,0-1.21-.33,1,1,0,0,0-.78.54,4.93,4.93,0,0,0-.19,1.5,6.48,6.48,0,0,1-1,2.9,3.71,3.71,0,0,1-3,1.92,8.81,8.81,0,0,1-5-1.55q-5.61-3.24-3.41-7.06a5.93,5.93,0,0,1,2-2.26,4.49,4.49,0,0,0,1.22-.85,1,1,0,0,0,0-.93,1.69,1.69,0,0,0-.76-.85,5.88,5.88,0,0,0-4.37-.71,5.46,5.46,0,0,0-3.58,2.77,6.13,6.13,0,0,0,.12,6.56Q135.73,58.43,140.8,61.36Z"/><path class="cls-2" d="M-21.57,36.39q7.26,4.19,14.21,1.86t12-11L26.28-10.29l-9.15-4.14-1.37.56.15,1.54a12.71,12.71,0,0,1-.63,6.5,67.23,67.23,0,0,1-4.53,8.92Q7.06,9.48,2.39,11.46A10.13,10.13,0,0,1-7,10.69a6.77,6.77,0,0,1-3.65-5q-.45-3.16,2-7.38L2.53-21.2a2.18,2.18,0,0,0,.22-1.9,2.83,2.83,0,0,0-1.34-1.55,13.73,13.73,0,0,0-5.47-1.6,16.07,16.07,0,0,0-6.16.5l-.44,2,3.2,1.84a1.55,1.55,0,0,1,.86,1A2.48,2.48,0,0,1-7-19.35L-16-3.76q-3.19,5.54-2.21,10.21t6,7.55A16.89,16.89,0,0,0-4,16.37a14.22,14.22,0,0,0,7.78-2.05l-6,10.44Q-5.79,30.85-10,33.25a8,8,0,0,1-8.56-.11,6.54,6.54,0,0,1-3.38-4.49A8,8,0,0,1-20.88,23,9.7,9.7,0,0,1-18,19.65a12.22,12.22,0,0,1,3.18-1.54A4,4,0,0,0-13,17.3a.67.67,0,0,0,0-.68,2.08,2.08,0,0,0-.82-.74,10.18,10.18,0,0,0-8.07-1.33,9.7,9.7,0,0,0-5.92,4.69,11.06,11.06,0,0,0-1.48,5.69,11.49,11.49,0,0,0,2,6.17A16.59,16.59,0,0,0-21.57,36.39Zm35.2-59.7q5.14,3,9.07,3a6.12,6.12,0,0,0,5.78-3.16,5.52,5.52,0,0,0,.65-4.46,5.54,5.54,0,0,0-2.61-3.32,1.91,1.91,0,0,0-1.2-.33,1,1,0,0,0-.78.54,4.6,4.6,0,0,0-.19,1.5,6.6,6.6,0,0,1-1,2.9,3.72,3.72,0,0,1-3,1.92,8.91,8.91,0,0,1-5-1.55q-5.61-3.24-3.41-7.06a5.93,5.93,0,0,1,2-2.26,4.31,4.31,0,0,0,1.22-.85,1,1,0,0,0,0-.93,1.65,1.65,0,0,0-.76-.85,5.88,5.88,0,0,0-4.37-.71A5.44,5.44,0,0,0,6.5-36.16a6.13,6.13,0,0,0,.11,6.56Q8.56-26.24,13.63-23.31Z"/></pattern></defs><g id="Слой_2" data-name="Слой 2"><g id="Слой_1-2" data-name="Слой 1"><rect class="cls-3" width="1920" height="1080"/></g></g></svg>