<svg xmlns="http://www.w3.org/2000/svg" xmlns:xlink="http://www.w3.org/1999/xlink" viewBox="0 0 1920 1080"><defs><style>.cls-1{fill:none;}.cls-2{fill:#ededed;}.cls-3{fill:url(#Новый_узор_2);}</style><pattern id="Новый_узор_2" data-name="Новый узор 2" width="1184.43" height="1459.22" patternUnits="userSpaceOnUse" viewBox="0 0 1184.43 1459.22"><rect class="cls-1" width="1184.43" height="1459.22"/><polygon class="cls-2" points="1105.47 1459.22 1047.03 1400.78 2447.81 0 2506.25 58.44 1105.47 1459.22"/><polygon class="cls-2" points="868.59 1459.22 810.15 1400.78 2210.93 0 2269.36 58.44 868.59 1459.22"/><polygon class="cls-2" points="631.7 1459.22 573.26 1400.78 1974.04 0 2032.48 58.44 631.7 1459.22"/><polygon class="cls-2" points="394.81 1459.22 336.38 1400.78 1737.15 0 1795.59 58.44 394.81 1459.22"/><polygon class="cls-2" points="157.93 1459.22 99.49 1400.78 1500.27 0 1558.71 58.44 157.93 1459.22"/><polygon class="cls-2" points="-78.96 1459.22 -137.39 1400.78 1263.38 0 1321.82 58.44 -78.96 1459.22"/><polygon class="cls-2" points="-315.84 1459.22 -374.28 1400.78 1026.5 0 1084.94 58.44 -315.84 1459.22"/><polygon class="cls-2" points="-552.73 1459.22 -611.16 1400.78 789.61 0 848.05 58.44 -552.73 1459.22"/><polygon class="cls-2" points="-789.61 1459.22 -848.05 1400.78 552.73 0 611.16 58.44 -789.61 1459.22"/><polygon class="cls-2" points="-1026.5 1459.22 -1084.94 1400.78 315.84 0 374.28 58.44 -1026.5 1459.22"/><polygon class="cls-2" points="-1263.38 1459.22 -1321.82 1400.78 78.96 0 137.39 58.44 -1263.38 1459.22"/></pattern></defs><g id="Слой_2" data-name="Слой 2"><g id="Слой_1-2" data-name="Слой 1"><rect class="cls-3" width="1920" height="1080"/></g></g></svg>