<svg id="Слой_1" data-name="Слой 1" xmlns="http://www.w3.org/2000/svg" viewBox="0 0 128 128"><defs><style>.cls-1{fill:#fff;fill-rule:evenodd;}</style></defs><path class="cls-1" d="M112.71,52a10.94,10.94,0,0,1,2.07-5.72l.7-.7a2,2,0,0,0,.53-1.83,2,2,0,0,0-1.23-1.44L64.51,22.85a2,2,0,0,0-2,.33L15,63.24a1.66,1.66,0,0,0-.13.14,7.62,7.62,0,0,0-2.08,2.78,11.43,11.43,0,0,0-.83,4.65,12.61,12.61,0,0,0,4.46,9.83l.35.22,53,24.21a2.14,2.14,0,0,0,.34.09h0a1.55,1.55,0,0,0,.36.08h.05a2.64,2.64,0,0,0,.49,0l.06,0a2.07,2.07,0,0,0,.53-.18l.06,0a2.25,2.25,0,0,0,.47-.34l43.29-44.21A2,2,0,0,0,116,59a2,2,0,0,0-.73-1.44A6.58,6.58,0,0,1,112.71,52ZM63.33,40.08l22,8.64-4.4,4.11L59.11,43.7ZM13.94,70.81a8.43,8.43,0,0,1,1-4.54,1.85,1.85,0,0,0,.53.34L66.29,88a19.71,19.71,0,0,0,1.35,13.9L17.59,79A10.7,10.7,0,0,1,13.94,70.81Zm58.14,31.07a1.45,1.45,0,0,0-.18-.17c-.74-.57-1.8-2.31-2.31-5.16A20.21,20.21,0,0,1,70,88a4.66,4.66,0,0,1,1.24-2.15l42.14-41-.06.09-.06.05-.12.2c-.18.26-.36.53-.52.8l-.27.47c-.15.27-.3.55-.43.83l-.21.48c-.12.29-.24.57-.34.86l-.15.48c0,.17-.12.34-.16.51s-.07.31-.1.46l0,.1h0a8.78,8.78,0,0,0,1.77,7.64,9.85,9.85,0,0,0,1.3,1.28Z"/><path class="cls-1" d="M111.22,58.54a1,1,0,0,1,0,1.42L80.58,89.59a1,1,0,0,1-1.41,0,1,1,0,0,1,0-1.42L109.8,58.52A1,1,0,0,1,111.22,58.54Z"/><path class="cls-1" d="M109.45,56.07a1,1,0,0,1,0,1.41L89.64,75.81a1,1,0,1,1-1.36-1.46L108,56A1,1,0,0,1,109.45,56.07Z"/><path class="cls-1" d="M24.76,76.37a1,1,0,0,1,1.31-.53L45.13,84a1,1,0,0,1-.79,1.84L25.29,77.68A1,1,0,0,1,24.76,76.37Z"/></svg>