<svg xmlns="http://www.w3.org/2000/svg" viewBox="0 0 107.94 60.31"><defs><style>.cls-1,.cls-2{fill:#fff;}.cls-1{fill-rule:evenodd;}</style></defs><g id="Слой_2" data-name="Слой 2"><g id="Слой_1-2" data-name="Слой 1"><path class="cls-1" d="M26,34.15l23.41,8.79a8,8,0,0,0,5.65,0l22.86-8.68V51c0,5.14-11.62,9.31-26,9.31S26,56.14,26,51V34.15Z"/><path class="cls-1" d="M103,41.63a.87.87,0,0,0-.65.53c-.75,1.67-1.65,3.56-2.45,5a1.4,1.4,0,0,0-.13,1,.75.75,0,0,0,.46.55,9.09,9.09,0,0,0,3.08.65,3.56,3.56,0,0,0,2.49-.81.5.5,0,0,0,.1-.51,23.86,23.86,0,0,0-2.38-6.12A.48.48,0,0,0,103,41.63Zm-.27-2a2.48,2.48,0,0,1,2.52,1.26l-.86.5m-1.66-1.76a2.89,2.89,0,0,0-2.21,1.7Zm2.52,1.26a25.83,25.83,0,0,1,2.59,6.66,2.52,2.52,0,0,1-.71,2.48,5.59,5.59,0,0,1-3.83,1.31,11,11,0,0,1-3.78-.78,3,3,0,0,1-1.37-4.34c.76-1.4,1.63-3.24,2.37-4.89"/><path class="cls-1" d="M101.23,39.11a1,1,0,0,1,1.41.14,3.82,3.82,0,0,1,.63,1.55,16.29,16.29,0,0,1,.26,1.89,35.76,35.76,0,0,1,.12,3.7,1,1,0,0,1-2,0,34.24,34.24,0,0,0-.11-3.49,14.39,14.39,0,0,0-.23-1.64c0-.23-.1-.4-.14-.54a1.47,1.47,0,0,0-.08-.17h0A1,1,0,0,1,101.23,39.11Z"/><path class="cls-1" d="M102.45,19.81a1.5,1.5,0,0,1,1.5,1.5V37.92a1.5,1.5,0,0,1-3,0V21.31A1.5,1.5,0,0,1,102.45,19.81Z"/><path class="cls-2" d="M106.58,38.51a4.13,4.13,0,1,1-4.13-4.13A4.13,4.13,0,0,1,106.58,38.51Z"/><path class="cls-2" d="M103.3,19.91,55.42.61a8.49,8.49,0,0,0-6.29,0L.66,19.91a1.06,1.06,0,0,0,0,2L49.29,40.13a8.41,8.41,0,0,0,6,0l48-18.24A1.06,1.06,0,0,0,103.3,19.91ZM21.86,25.59a1,1,0,0,1-1.29.6L9.14,22a1,1,0,0,1-.59-1.29,1,1,0,0,1,1.28-.59l11.43,4.19A1,1,0,0,1,21.86,25.59ZM88.4,24.31,54.19,36.79a1,1,0,1,1-.68-1.88l34.2-12.48a1,1,0,1,1,.69,1.88Z"/></g></g></svg>