<svg id="Слой_1" data-name="Слой 1" xmlns="http://www.w3.org/2000/svg" viewBox="0 0 128 128"><defs><style>.cls-1,.cls-2{fill:#fff;}.cls-1{fill-rule:evenodd;}</style></defs><path class="cls-1" d="M37,66.65l23.41,8.79a8,8,0,0,0,5.65,0L89,66.75V83.5c0,5.14-11.62,9.31-26,9.31S37,88.64,37,83.5V66.65Z"/><path class="cls-1" d="M114,74.13a.87.87,0,0,0-.65.53c-.75,1.67-1.65,3.56-2.45,5a1.34,1.34,0,0,0-.12,1,.72.72,0,0,0,.45.55,9.14,9.14,0,0,0,3.08.65,3.61,3.61,0,0,0,2.5-.81.53.53,0,0,0,.09-.51,24.37,24.37,0,0,0-2.37-6.13A.5.5,0,0,0,114,74.13Zm-.27-2a2.48,2.48,0,0,1,2.52,1.26l-.86.5m-1.66-1.76a2.86,2.86,0,0,0-2.2,1.7Zm2.52,1.26a25.83,25.83,0,0,1,2.59,6.66,2.52,2.52,0,0,1-.71,2.48,5.59,5.59,0,0,1-3.83,1.31,11,11,0,0,1-3.78-.78,3,3,0,0,1-1.37-4.34c.76-1.4,1.63-3.24,2.38-4.89"/><path class="cls-1" d="M112.25,71.61a1,1,0,0,1,1.41.14,3.82,3.82,0,0,1,.63,1.55,16.29,16.29,0,0,1,.26,1.89,35.76,35.76,0,0,1,.12,3.7,1,1,0,0,1-2,0,34.24,34.24,0,0,0-.11-3.49,14.39,14.39,0,0,0-.23-1.64,3.18,3.18,0,0,0-.14-.54,1.47,1.47,0,0,0-.08-.17h0A1,1,0,0,1,112.25,71.61Z"/><path class="cls-1" d="M113.47,52.31a1.5,1.5,0,0,1,1.5,1.5V70.42a1.5,1.5,0,0,1-3,0V53.81A1.5,1.5,0,0,1,113.47,52.31Z"/><path class="cls-2" d="M117.6,71a4.13,4.13,0,1,1-4.13-4.13A4.13,4.13,0,0,1,117.6,71Z"/><path class="cls-2" d="M114.32,52.41,66.44,33.11a8.49,8.49,0,0,0-6.29,0L11.68,52.41a1.06,1.06,0,0,0,0,2L60.31,72.63a8.41,8.41,0,0,0,6,0l48-18.24A1.06,1.06,0,0,0,114.32,52.41ZM32.88,58.09a1,1,0,0,1-1.29.6L20.16,54.5a1,1,0,0,1-.59-1.29,1,1,0,0,1,1.28-.59l11.43,4.19A1,1,0,0,1,32.88,58.09Zm66.54-1.28L65.21,69.29a1,1,0,1,1-.68-1.88l34.2-12.48a1,1,0,0,1,1.29.6A1,1,0,0,1,99.42,56.81Z"/></svg>